<svg xmlns="http://www.w3.org/2000/svg" xmlns:xlink="http://www.w3.org/1999/xlink" viewBox="0,0,256,256" width="48px" height="48px"><defs><linearGradient x1="21.861" y1="8.237" x2="25.703" y2="36.552" gradientUnits="userSpaceOnUse" id="color-1"><stop offset="0" stop-color="#00c1e0"></stop><stop offset="1" stop-color="#009bb8"></stop></linearGradient></defs><g fill="url(#color-1)" fill-rule="nonzero" stroke="none" stroke-width="1" stroke-linecap="butt" stroke-linejoin="miter" stroke-miterlimit="10" stroke-dasharray="" stroke-dashoffset="0" font-family="none" font-weight="none" font-size="none" text-anchor="none" style="mix-blend-mode: normal"><g transform="translate(1.06667,-27.736) scale(5.33333,5.33333)"><path d="M24,9.604c-5.589,0 -9.347,2.439 -11.276,7.318c-0.2,0.505 0.417,0.92 0.816,0.551c2.035,-1.882 4.322,-2.505 6.86,-1.871c1.826,0.456 3.131,1.781 4.576,3.247c2.352,2.387 5.075,5.151 11.024,5.151c5.589,0 9.348,-2.44 11.276,-7.319c0.2,-0.505 -0.417,-0.92 -0.816,-0.551c-2.035,1.882 -4.322,2.506 -6.86,1.872c-1.825,-0.456 -3.13,-1.781 -4.575,-3.247c-2.353,-2.388 -5.077,-5.151 -11.025,-5.151zM12,24c-5.589,0 -9.348,2.44 -11.276,7.319c-0.2,0.505 0.417,0.92 0.816,0.551c2.035,-1.882 4.322,-2.506 6.86,-1.871c1.825,0.457 3.13,1.781 4.575,3.246c2.353,2.388 5.077,5.152 11.025,5.152c5.589,0 9.348,-2.44 11.276,-7.319c0.2,-0.505 -0.417,-0.92 -0.816,-0.551c-2.035,1.882 -4.322,2.506 -6.86,1.871c-1.826,-0.456 -3.131,-1.781 -4.576,-3.246c-2.352,-2.388 -5.075,-5.152 -11.024,-5.152z"></path></g></g><g fill="#009db0" fill-rule="nonzero" stroke="none" stroke-width="1" stroke-linecap="butt" stroke-linejoin="miter" stroke-miterlimit="10" stroke-dasharray="" stroke-dashoffset="0" font-family="none" font-weight="none" font-size="none" text-anchor="none" style="mix-blend-mode: normal"><g><path d="M42.13667,237.26333v1.08h-10.49v-1.08c0.54667,-0.2 1.1,-0.37333 1.66,-0.52c0.56,-0.15333 1.16333,-0.28 1.81,-0.38v0v-22.21h-5.71l-1.98,5.34h-0.93c-0.07333,-0.5 -0.13667,-1.06667 -0.19,-1.7c-0.04667,-0.63333 -0.09,-1.28 -0.13,-1.94c-0.04,-0.66 -0.07,-1.30667 -0.09,-1.94c-0.02667,-0.63333 -0.04,-1.2 -0.04,-1.7v0h21.69c0,0.5 -0.01333,1.06 -0.04,1.68c-0.02,0.62 -0.05,1.26 -0.09,1.92c-0.04,0.66 -0.07667,1.30667 -0.11,1.94c-0.04,0.64 -0.09667,1.22 -0.17,1.74v0h-0.97l-1.94,-5.34h-5.71v22.21c0.64667,0.12667 1.25,0.25333 1.81,0.38c0.56,0.12 1.1,0.29333 1.62,0.52zM62.63667,233.45333v0c0,0.54667 0.01,1.02 0.03,1.42c0.02667,0.4 0.05333,0.82333 0.08,1.27v0l2.57,0.37v0.79c-0.62,0.32 -1.31,0.60667 -2.07,0.86c-0.76,0.24667 -1.48667,0.43333 -2.18,0.56v0h-0.94c-0.24667,-0.57333 -0.39333,-1.20333 -0.44,-1.89c-0.05333,-0.68667 -0.09333,-1.44 -0.12,-2.26v0h-0.18c-0.1,0.5 -0.29333,1.00333 -0.58,1.51c-0.28667,0.51333 -0.66,0.97 -1.12,1.37c-0.46,0.39333 -1,0.71667 -1.62,0.97c-0.62667,0.24667 -1.33667,0.37 -2.13,0.37v0c-1.52,0 -2.76,-0.46 -3.72,-1.38c-0.95333,-0.92 -1.43,-2.12667 -1.43,-3.62v0c0,-1.14667 0.23,-2.08667 0.69,-2.82c0.46,-0.73333 1.13667,-1.31333 2.03,-1.74c0.89333,-0.42 2,-0.72333 3.32,-0.91c1.32,-0.18667 2.85333,-0.33 4.6,-0.43v0c0.09333,-1.07333 0.12333,-2.03667 0.09,-2.89c-0.04,-0.86 -0.17667,-1.59667 -0.41,-2.21c-0.24,-0.60667 -0.59,-1.07667 -1.05,-1.41c-0.46,-0.34 -1.06333,-0.51 -1.81,-0.51v0c-0.34667,0 -0.73667,0.02 -1.17,0.06c-0.44,0.03333 -0.87,0.13667 -1.29,0.31v0l-1.76,4.48h-0.97c-0.24667,-0.74667 -0.46333,-1.51667 -0.65,-2.31c-0.18667,-0.79333 -0.30667,-1.57667 -0.36,-2.35v0c0.94667,-0.57333 2,-1.02333 3.16,-1.35c1.16,-0.32 2.44667,-0.48 3.86,-0.48v0c1.27333,0 2.29,0.18 3.05,0.54c0.75333,0.36 1.33,0.82667 1.73,1.4c0.4,0.57333 0.66333,1.20667 0.79,1.9c0.12,0.7 0.18,1.39667 0.18,2.09v0c0,1.49333 -0.03,2.93333 -0.09,4.32c-0.06,1.38 -0.09,2.70333 -0.09,3.97zM55.42667,236.48333v0c0.62,0 1.16667,-0.12667 1.64,-0.38c0.47333,-0.24667 0.87333,-0.54333 1.2,-0.89c0.32,-0.35333 0.58,-0.71 0.78,-1.07c0.2,-0.36 0.33667,-0.66333 0.41,-0.91v0v-3.92c-1.44,0 -2.62,0.07333 -3.54,0.22c-0.92667,0.15333 -1.65,0.39 -2.17,0.71c-0.52,0.32667 -0.88,0.73333 -1.08,1.22c-0.2,0.48 -0.3,1.03333 -0.3,1.66v0c0,1.06667 0.27333,1.89333 0.82,2.48c0.54667,0.58667 1.29333,0.88 2.24,0.88zM75.99667,237.41333v0.93h-8.29v-0.93c0.37333,-0.2 0.76,-0.36667 1.16,-0.5c0.4,-0.14 0.83667,-0.27333 1.31,-0.4v0v-14.67l-2.47,-0.3v-0.97c0.72667,-0.3 1.51333,-0.56 2.36,-0.78c0.84,-0.22667 1.68333,-0.41333 2.53,-0.56v0h0.94v17.28c0.49333,0.12667 0.94,0.26 1.34,0.4c0.4,0.13333 0.77333,0.3 1.12,0.5zM69.46667,213.33333v0c0,-0.67333 0.21667,-1.21 0.65,-1.61c0.43333,-0.39333 1.01333,-0.59 1.74,-0.59v0c0.72,0 1.29,0.19667 1.71,0.59c0.42667,0.4 0.64,0.93667 0.64,1.61v0c0,0.67333 -0.21333,1.20333 -0.64,1.59c-0.42,0.38667 -0.99,0.58 -1.71,0.58v0c-0.72667,0 -1.30667,-0.19333 -1.74,-0.58c-0.43333,-0.38667 -0.65,-0.91667 -0.65,-1.59zM87.23667,237.41333v0.93h-8.29v-0.93c0.82,-0.4 1.64,-0.7 2.46,-0.9v0v-23.63l-2.83,-0.3v-0.97c0.64667,-0.3 1.45333,-0.56 2.42,-0.78c0.97333,-0.22667 1.92,-0.41333 2.84,-0.56v0h0.93v26.24c0.82667,0.2 1.65,0.5 2.47,0.9zM98.06667,238.34333l-1.95,0.45l-5.86,-17.25c-0.34667,-0.12 -0.68667,-0.25 -1.02,-0.39c-0.34,-0.13333 -0.66,-0.3 -0.96,-0.5v0v-0.97h7.77v0.93c-0.34667,0.2 -0.69667,0.38 -1.05,0.54c-0.34667,0.16 -0.70667,0.29 -1.08,0.39v0l3.25,10.9l0.48,2.69h0.08l0.56,-2.76l4.03,-12.32l1.12,-0.37l4.29,12.73l0.68,2.72h0.07l0.56,-2.72l2.88,-10.87c-0.27333,-0.04667 -0.59333,-0.14667 -0.96,-0.3c-0.36,-0.14667 -0.72667,-0.34333 -1.1,-0.59v0v-0.97h6.35v0.97c-0.52,0.34667 -1.23,0.64333 -2.13,0.89v0l-5.3,16.8l-1.98,0.45l-3.69,-10.56l-0.71,-3.1h-0.12l-0.85,3.1zM125.64667,237.41333v0.93h-8.28v-0.93c0.37333,-0.2 0.75667,-0.36667 1.15,-0.5c0.4,-0.14 0.83667,-0.27333 1.31,-0.4v0v-14.67l-2.46,-0.3v-0.97c0.72,-0.3 1.50333,-0.56 2.35,-0.78c0.84667,-0.22667 1.69333,-0.41333 2.54,-0.56v0h0.93v17.28c0.5,0.12667 0.94667,0.26 1.34,0.4c0.4,0.13333 0.77333,0.3 1.12,0.5zM119.11667,213.33333v0c0,-0.67333 0.21667,-1.21 0.65,-1.61c0.44,-0.39333 1.02,-0.59 1.74,-0.59v0c0.72,0 1.29333,0.19667 1.72,0.59c0.42,0.4 0.63,0.93667 0.63,1.61v0c0,0.67333 -0.21,1.20333 -0.63,1.59c-0.42667,0.38667 -1,0.58 -1.72,0.58v0c-0.72,0 -1.3,-0.19333 -1.74,-0.58c-0.43333,-0.38667 -0.65,-0.91667 -0.65,-1.59zM148.60667,237.41333v0.93h-8.02v-0.93c0.67333,-0.34667 1.40667,-0.64667 2.2,-0.9v0v-8.84c0,-1.89333 -0.27333,-3.38667 -0.82,-4.48c-0.54667,-1.1 -1.54333,-1.65 -2.99,-1.65v0c-0.62,0 -1.19667,0.11333 -1.73,0.34c-0.54,0.22667 -1.01333,0.53 -1.42,0.91c-0.41333,0.38667 -0.77,0.82333 -1.07,1.31c-0.29333,0.48667 -0.53,0.99 -0.71,1.51v0v10.9c0.77333,0.15333 1.52,0.45333 2.24,0.9v0v0.93h-8.06v-0.93c0.62,-0.32667 1.44,-0.62667 2.46,-0.9v0v-14.67l-2.46,-0.3v-0.97c0.64667,-0.27333 1.39333,-0.52 2.24,-0.74c0.84667,-0.22667 1.73,-0.42667 2.65,-0.6v0h0.93v4.18h0.04c0.52667,-1.14667 1.28,-2.13 2.26,-2.95c0.98667,-0.82 2.17667,-1.23 3.57,-1.23v0c0.99333,0 1.88333,0.11667 2.67,0.35c0.78,0.24 1.43333,0.65667 1.96,1.25c0.52,0.6 0.91667,1.40333 1.19,2.41c0.27333,1.00667 0.41,2.28333 0.41,3.83v0v9.44c0.99333,0.18 1.81333,0.48 2.46,0.9zM163.31667,234.65333h-0.15c-0.12,0.54667 -0.33,1.07 -0.63,1.57c-0.3,0.49333 -0.66667,0.93333 -1.1,1.32c-0.43333,0.38667 -0.93,0.69333 -1.49,0.92c-0.56,0.22 -1.16667,0.33 -1.82,0.33v0c-2.46,0 -4.3,-0.78333 -5.52,-2.35c-1.22,-1.56667 -1.83,-4.00667 -1.83,-7.32v0c0,-3.18667 0.77667,-5.61333 2.33,-7.28c1.56,-1.66667 3.65667,-2.5 6.29,-2.5v0c0.92667,0 1.65,0.04333 2.17,0.13c0.52,0.08667 1.09333,0.24333 1.72,0.47v0v-7.06l-2.84,-0.3v-0.97c0.72,-0.3 1.56,-0.56 2.52,-0.78c0.96,-0.22667 1.87333,-0.41333 2.74,-0.56v0h0.94v25.95l2.46,0.29v0.79c-0.72,0.34667 -1.46667,0.64333 -2.24,0.89c-0.77333,0.25333 -1.53333,0.43 -2.28,0.53v0h-0.93zM158.87667,236.48333v0c1.22,0 2.19,-0.38667 2.91,-1.16c0.72667,-0.77333 1.22667,-1.82 1.5,-3.14v0v-10.52c-0.42667,-0.25333 -0.92667,-0.43 -1.5,-0.53c-0.57333,-0.1 -1.30667,-0.15 -2.2,-0.15v0c-1.69333,0 -2.98667,0.74 -3.88,2.22c-0.9,1.48667 -1.35,3.46 -1.35,5.92v0c0,1.02 0.09,1.97333 0.27,2.86c0.17333,0.88 0.44667,1.65667 0.82,2.33c0.37333,0.67333 0.84,1.20333 1.4,1.59c0.56,0.38667 1.23667,0.58 2.03,0.58zM188.63667,236.18333l1.75,-4.63h0.97c0.12667,0.69333 0.24,1.57 0.34,2.63c0.1,1.06 0.12333,2.08667 0.07,3.08v0c-0.37333,0.3 -0.82,0.54333 -1.34,0.73c-0.52667,0.18667 -1.08,0.34333 -1.66,0.47c-0.58667,0.12 -1.18667,0.20667 -1.8,0.26c-0.60667,0.04667 -1.18333,0.07 -1.73,0.07v0c-2.09333,0 -3.96,-0.26667 -5.6,-0.8c-1.64667,-0.53333 -3.03333,-1.35 -4.16,-2.45c-1.13333,-1.09333 -2.00667,-2.49333 -2.62,-4.2c-0.60667,-1.7 -0.91,-3.72 -0.91,-6.06v0c0,-2.44 0.33667,-4.51333 1.01,-6.22c0.66667,-1.70667 1.57333,-3.1 2.72,-4.18c1.14667,-1.08 2.48,-1.87 4,-2.37c1.51333,-0.5 3.10333,-0.75 4.77,-0.75v0c1.64667,0 3.03,0.10667 4.15,0.32c1.12,0.21333 2.10333,0.53 2.95,0.95v0c0,0.4 -0.01333,0.86667 -0.04,1.4c-0.02667,0.53333 -0.06333,1.1 -0.11,1.7c-0.05333,0.6 -0.11667,1.18333 -0.19,1.75c-0.07333,0.57333 -0.14667,1.09667 -0.22,1.57v0h-0.97l-1.94,-5.37c-0.27333,-0.15333 -0.73,-0.25333 -1.37,-0.3c-0.63333,-0.05333 -1.26,-0.08 -1.88,-0.08v0c-1.24667,0 -2.42333,0.23 -3.53,0.69c-1.10667,0.46 -2.07667,1.17 -2.91,2.13c-0.83333,0.96 -1.5,2.16667 -2,3.62c-0.5,1.46 -0.75,3.17333 -0.75,5.14v0c0,1.76667 0.22667,3.36333 0.68,4.79c0.44667,1.43333 1.09333,2.65333 1.94,3.66c0.84667,1.00667 1.88,1.78 3.1,2.32c1.22,0.53333 2.6,0.8 4.14,0.8v0c0.82,0 1.50333,-0.06333 2.05,-0.19c0.54667,-0.12 0.91,-0.28 1.09,-0.48zM198.07667,230.28333l1.53,5.49c0.3,0.3 0.68667,0.55333 1.16,0.76c0.47333,0.21333 1.18333,0.32 2.13,0.32v0c0.79333,0 1.54,-0.10667 2.24,-0.32c0.69333,-0.20667 1.29667,-0.51667 1.81,-0.93c0.50667,-0.41333 0.91,-0.91 1.21,-1.49c0.3,-0.58667 0.45,-1.25333 0.45,-2v0c0,-0.99333 -0.30667,-1.82667 -0.92,-2.5c-0.60667,-0.67333 -1.36333,-1.27 -2.27,-1.79c-0.91333,-0.52667 -1.90333,-1.04 -2.97,-1.54c-1.07333,-0.49333 -2.06333,-1.08333 -2.97,-1.77c-0.90667,-0.68667 -1.66667,-1.50667 -2.28,-2.46c-0.60667,-0.96 -0.91,-2.16333 -0.91,-3.61v0c0,-1.04 0.18667,-1.97333 0.56,-2.8c0.37333,-0.82 0.90333,-1.51667 1.59,-2.09c0.68,-0.56667 1.49333,-1.00667 2.44,-1.32c0.94667,-0.31333 2.00333,-0.47 3.17,-0.47v0c1.52,0 2.91,0.12 4.17,0.36c1.25333,0.23333 2.24333,0.52333 2.97,0.87v0c0,0.42667 -0.03333,0.92 -0.1,1.48c-0.06,0.56 -0.13333,1.13667 -0.22,1.73c-0.08667,0.6 -0.18,1.18 -0.28,1.74c-0.1,0.56 -0.2,1.05333 -0.3,1.48v0h-0.97l-1.49,-5.12c-0.45333,-0.2 -1.02,-0.35 -1.7,-0.45c-0.68667,-0.1 -1.41667,-0.15 -2.19,-0.15v0c-1.26667,0 -2.28667,0.35667 -3.06,1.07c-0.77333,0.70667 -1.16,1.69667 -1.16,2.97v0c0,1.02 0.30667,1.87667 0.92,2.57c0.60667,0.7 1.37,1.32333 2.29,1.87c0.92667,0.54667 1.91667,1.07333 2.97,1.58c1.06,0.51333 2.05,1.10667 2.97,1.78c0.92,0.67333 1.68667,1.47 2.3,2.39c0.60667,0.92 0.91,2.06333 0.91,3.43v0c0,1.12 -0.20333,2.14 -0.61,3.06c-0.41333,0.92 -1.00667,1.70667 -1.78,2.36c-0.77333,0.64667 -1.72,1.14333 -2.84,1.49c-1.12,0.34667 -2.38667,0.52 -3.8,0.52v0c-1.57333,0 -2.98,-0.18667 -4.22,-0.56c-1.24667,-0.37333 -2.13,-0.77 -2.65,-1.19v0c0.02,-0.42667 0.06333,-0.93667 0.13,-1.53c0.06,-0.6 0.13333,-1.21667 0.22,-1.85c0.08667,-0.63333 0.18,-1.25 0.28,-1.85c0.1,-0.6 0.2,-1.11 0.3,-1.53v0zM218.08667,230.28333l1.53,5.49c0.3,0.3 0.68667,0.55333 1.16,0.76c0.47333,0.21333 1.18333,0.32 2.13,0.32v0c0.79333,0 1.54,-0.10667 2.24,-0.32c0.69333,-0.20667 1.29667,-0.51667 1.81,-0.93c0.50667,-0.41333 0.91,-0.91 1.21,-1.49c0.3,-0.58667 0.45,-1.25333 0.45,-2v0c0,-0.99333 -0.30333,-1.82667 -0.91,-2.5c-0.61333,-0.67333 -1.37333,-1.27 -2.28,-1.79c-0.90667,-0.52667 -1.89667,-1.04 -2.97,-1.54c-1.07333,-0.49333 -2.06333,-1.08333 -2.97,-1.77c-0.90667,-0.68667 -1.66667,-1.50667 -2.28,-2.46c-0.60667,-0.96 -0.91,-2.16333 -0.91,-3.61v0c0,-1.04 0.18667,-1.97333 0.56,-2.8c0.37333,-0.82 0.90333,-1.51667 1.59,-2.09c0.68,-0.56667 1.49333,-1.00667 2.44,-1.32c0.94667,-0.31333 2.00667,-0.47 3.18,-0.47v0c1.51333,0 2.9,0.12 4.16,0.36c1.25333,0.23333 2.24333,0.52333 2.97,0.87v0c0,0.42667 -0.03333,0.92 -0.1,1.48c-0.06,0.56 -0.13333,1.13667 -0.22,1.73c-0.08667,0.6 -0.18,1.18 -0.28,1.74c-0.1,0.56 -0.2,1.05333 -0.3,1.48v0h-0.97l-1.49,-5.12c-0.45333,-0.2 -1.02,-0.35 -1.7,-0.45c-0.68667,-0.1 -1.41667,-0.15 -2.19,-0.15v0c-1.26667,0 -2.28667,0.35667 -3.06,1.07c-0.77333,0.70667 -1.16,1.69667 -1.16,2.97v0c0,1.02 0.30667,1.87667 0.92,2.57c0.60667,0.7 1.37333,1.32333 2.3,1.87c0.92,0.54667 1.90667,1.07333 2.96,1.58c1.06,0.51333 2.05,1.10667 2.97,1.78c0.92,0.67333 1.68667,1.47 2.3,2.39c0.60667,0.92 0.91,2.06333 0.91,3.43v0c0,1.12 -0.20333,2.14 -0.61,3.06c-0.41333,0.92 -1.00667,1.70667 -1.78,2.36c-0.76667,0.64667 -1.71,1.14333 -2.83,1.49c-1.12,0.34667 -2.39,0.52 -3.81,0.52v0c-1.56667,0 -2.97333,-0.18667 -4.22,-0.56c-1.24667,-0.37333 -2.13,-0.77 -2.65,-1.19v0c0.02667,-0.42667 0.07,-0.93667 0.13,-1.53c0.06,-0.6 0.13333,-1.21667 0.22,-1.85c0.08667,-0.63333 0.18,-1.25 0.28,-1.85c0.1,-0.6 0.2,-1.11 0.3,-1.53v0z"></path></g></g></svg>